<mxfile host="app.diagrams.net" modified="2022-05-09T13:50:37.292Z" agent="5.0 (X11; Linux x86_64) AppleWebKit/537.36 (KHTML, like Gecko) Chrome/101.0.4951.54 Safari/537.36" etag="PIVq1_docjhSVF6bl9Ln" version="18.0.2" type="github">
  <diagram id="ct0ZKl5jLhKEhMNOFdHM" name="Page-1">
    <mxGraphModel dx="1422" dy="731" grid="1" gridSize="10" guides="1" tooltips="1" connect="1" arrows="1" fold="1" page="1" pageScale="1" pageWidth="850" pageHeight="1100" math="0" shadow="0">
      <root>
        <mxCell id="0" />
        <mxCell id="1" parent="0" />
        <mxCell id="zd_a0P6anE90CjWNrd7L-2" value="" style="rounded=0;whiteSpace=wrap;html=1;" vertex="1" parent="1">
          <mxGeometry x="270" y="70" width="270" height="470" as="geometry" />
        </mxCell>
        <mxCell id="zd_a0P6anE90CjWNrd7L-3" value="Consultar Publicações" style="ellipse;whiteSpace=wrap;html=1;" vertex="1" parent="1">
          <mxGeometry x="337.5" y="90" width="135" height="70" as="geometry" />
        </mxCell>
        <mxCell id="zd_a0P6anE90CjWNrd7L-8" style="rounded=0;orthogonalLoop=1;jettySize=auto;html=1;exitX=0.5;exitY=0.5;exitDx=0;exitDy=0;exitPerimeter=0;endArrow=block;endFill=1;" edge="1" parent="1" source="zd_a0P6anE90CjWNrd7L-4" target="zd_a0P6anE90CjWNrd7L-3">
          <mxGeometry relative="1" as="geometry" />
        </mxCell>
        <mxCell id="zd_a0P6anE90CjWNrd7L-9" style="edgeStyle=none;rounded=0;orthogonalLoop=1;jettySize=auto;html=1;exitX=0.5;exitY=0.5;exitDx=0;exitDy=0;exitPerimeter=0;endArrow=block;endFill=1;" edge="1" parent="1" source="zd_a0P6anE90CjWNrd7L-4" target="zd_a0P6anE90CjWNrd7L-6">
          <mxGeometry relative="1" as="geometry" />
        </mxCell>
        <mxCell id="zd_a0P6anE90CjWNrd7L-4" value="Visitante" style="shape=umlActor;verticalLabelPosition=bottom;verticalAlign=top;html=1;outlineConnect=0;" vertex="1" parent="1">
          <mxGeometry x="160" y="140" width="50" height="80" as="geometry" />
        </mxCell>
        <mxCell id="zd_a0P6anE90CjWNrd7L-6" value="Ver Representações" style="ellipse;whiteSpace=wrap;html=1;" vertex="1" parent="1">
          <mxGeometry x="337.5" y="170" width="135" height="70" as="geometry" />
        </mxCell>
        <mxCell id="zd_a0P6anE90CjWNrd7L-11" style="edgeStyle=none;rounded=0;orthogonalLoop=1;jettySize=auto;html=1;endArrow=block;endFill=0;exitX=0.5;exitY=0;exitDx=0;exitDy=0;exitPerimeter=0;" edge="1" parent="1" source="zd_a0P6anE90CjWNrd7L-10">
          <mxGeometry relative="1" as="geometry">
            <mxPoint x="180" y="350" as="sourcePoint" />
            <mxPoint x="185" y="250" as="targetPoint" />
          </mxGeometry>
        </mxCell>
        <mxCell id="zd_a0P6anE90CjWNrd7L-13" style="edgeStyle=none;rounded=0;orthogonalLoop=1;jettySize=auto;html=1;exitX=0.5;exitY=0.5;exitDx=0;exitDy=0;exitPerimeter=0;endArrow=block;endFill=1;" edge="1" parent="1" source="zd_a0P6anE90CjWNrd7L-10" target="zd_a0P6anE90CjWNrd7L-12">
          <mxGeometry relative="1" as="geometry" />
        </mxCell>
        <mxCell id="zd_a0P6anE90CjWNrd7L-20" style="edgeStyle=none;rounded=0;orthogonalLoop=1;jettySize=auto;html=1;exitX=0.5;exitY=0.5;exitDx=0;exitDy=0;exitPerimeter=0;entryX=0.048;entryY=0.329;entryDx=0;entryDy=0;entryPerimeter=0;endArrow=block;endFill=1;" edge="1" parent="1" source="zd_a0P6anE90CjWNrd7L-10" target="zd_a0P6anE90CjWNrd7L-19">
          <mxGeometry relative="1" as="geometry" />
        </mxCell>
        <mxCell id="zd_a0P6anE90CjWNrd7L-10" value="Autor" style="shape=umlActor;verticalLabelPosition=bottom;verticalAlign=top;html=1;outlineConnect=0;" vertex="1" parent="1">
          <mxGeometry x="160" y="330" width="50" height="80" as="geometry" />
        </mxCell>
        <mxCell id="zd_a0P6anE90CjWNrd7L-21" value="" style="edgeStyle=none;rounded=0;orthogonalLoop=1;jettySize=auto;html=1;endArrow=open;endFill=0;dashed=1;" edge="1" parent="1" source="zd_a0P6anE90CjWNrd7L-12" target="zd_a0P6anE90CjWNrd7L-19">
          <mxGeometry relative="1" as="geometry">
            <Array as="points">
              <mxPoint x="405" y="420" />
            </Array>
          </mxGeometry>
        </mxCell>
        <mxCell id="zd_a0P6anE90CjWNrd7L-12" value="Gerenciar Publicações" style="ellipse;whiteSpace=wrap;html=1;" vertex="1" parent="1">
          <mxGeometry x="337.5" y="335" width="135" height="70" as="geometry" />
        </mxCell>
        <mxCell id="zd_a0P6anE90CjWNrd7L-15" style="edgeStyle=none;rounded=0;orthogonalLoop=1;jettySize=auto;html=1;exitX=0.5;exitY=0.5;exitDx=0;exitDy=0;exitPerimeter=0;entryX=1;entryY=0.5;entryDx=0;entryDy=0;endArrow=block;endFill=1;" edge="1" parent="1" source="zd_a0P6anE90CjWNrd7L-14" target="zd_a0P6anE90CjWNrd7L-12">
          <mxGeometry relative="1" as="geometry" />
        </mxCell>
        <mxCell id="zd_a0P6anE90CjWNrd7L-18" style="edgeStyle=none;rounded=0;orthogonalLoop=1;jettySize=auto;html=1;exitX=0.5;exitY=0.5;exitDx=0;exitDy=0;exitPerimeter=0;endArrow=block;endFill=1;entryX=0.981;entryY=0.386;entryDx=0;entryDy=0;entryPerimeter=0;" edge="1" parent="1" source="zd_a0P6anE90CjWNrd7L-14" target="zd_a0P6anE90CjWNrd7L-17">
          <mxGeometry relative="1" as="geometry" />
        </mxCell>
        <mxCell id="zd_a0P6anE90CjWNrd7L-14" value="Administrador" style="shape=umlActor;verticalLabelPosition=bottom;verticalAlign=top;html=1;outlineConnect=0;" vertex="1" parent="1">
          <mxGeometry x="590" y="290" width="50" height="80" as="geometry" />
        </mxCell>
        <mxCell id="zd_a0P6anE90CjWNrd7L-17" value="Gerenciar Usuários" style="ellipse;whiteSpace=wrap;html=1;" vertex="1" parent="1">
          <mxGeometry x="337.5" y="250" width="135" height="70" as="geometry" />
        </mxCell>
        <mxCell id="zd_a0P6anE90CjWNrd7L-19" value="Realizar Login" style="ellipse;whiteSpace=wrap;html=1;" vertex="1" parent="1">
          <mxGeometry x="337.5" y="450" width="135" height="70" as="geometry" />
        </mxCell>
        <mxCell id="zd_a0P6anE90CjWNrd7L-22" value="&amp;lt;&amp;lt;include&amp;gt;&amp;gt;" style="text;html=1;strokeColor=none;fillColor=none;align=center;verticalAlign=middle;whiteSpace=wrap;rounded=0;" vertex="1" parent="1">
          <mxGeometry x="375" y="410" width="60" height="30" as="geometry" />
        </mxCell>
      </root>
    </mxGraphModel>
  </diagram>
</mxfile>
